<svg width="374" height="342" viewBox="0 0 374 342" fill="none" xmlns="http://www.w3.org/2000/svg">
<path d="M0 302C0 324.091 17.9086 342 40 342H70.9321C82.4273 342 93.3668 337.055 100.961 328.425L172.054 247.636C187.908 229.62 215.948 229.522 231.927 247.428L304.611 328.878C312.061 337.227 322.719 342 333.908 342C368.5 342 386.19 300.51 362.24 275.549L281.244 191.135C266.256 175.515 266.415 150.806 281.601 135.379L350.625 65.2641C374.496 41.0157 357.318 0 323.291 0C312.753 0 302.68 4.33558 295.436 11.9887L229.881 81.2442C214.497 97.497 188.771 97.9665 172.804 82.2859L100.685 11.4609C93.2056 4.11549 83.1413 0 72.6581 0H40C17.9086 0 0 17.9086 0 40V302Z" fill="url(#paint0_linear_11_14)"/>
<defs>
<linearGradient id="paint0_linear_11_14" x1="213" y1="0" x2="213" y2="342" gradientUnits="userSpaceOnUse">
<stop stop-color="#4A0E0E"/>
<stop offset="0.543269" stop-color="#C90000"/>
<stop offset="1" stop-color="#FF1F48"/>
</linearGradient>
</defs>
</svg>
